<?xml version="1.0" encoding="UTF-8" standalone="no"?>
<!DOCTYPE svg PUBLIC "-//W3C//DTD SVG 1.1//EN" "http://www.w3.org/Graphics/SVG/1.1/DTD/svg11.dtd">
<svg width="100%" height="100%" viewBox="0 0 100 125" version="1.1" xmlns="http://www.w3.org/2000/svg" xmlns:xlink="http://www.w3.org/1999/xlink" xml:space="preserve" xmlns:serif="http://www.serif.com/" style="fill-rule:evenodd;clip-rule:evenodd;stroke-linejoin:round;stroke-miterlimit:2;">
    <g transform="matrix(1.17721,0,0,1.17721,-8.84265,3.63969)">
        <path d="M92.27,89.42C92.614,90.822 92.484,92.3 91.9,93.62L89.9,98.08L77.72,98.08L79.43,91.66L75.43,79.13L75.66,98.08L24.31,98.08L24.54,79.13L20.54,91.66L22.26,98.08L10.07,98.08L8.07,93.62C7.486,92.3 7.356,90.822 7.7,89.42L14.03,63.78C14.882,60.197 16.599,56.877 19.03,54.11C19.845,53.188 20.738,52.338 21.7,51.57C25.437,48.657 29.37,46.004 33.47,43.63L35.06,42.71C35.421,42.5 35.832,42.39 36.249,42.39C37.388,42.39 38.373,43.21 38.58,44.33L44.17,74.82C44.198,74.982 44.34,75.102 44.505,75.102C44.67,75.102 44.812,74.982 44.84,74.82L47.84,58.14L46.01,55.2C45.753,54.781 45.789,54.241 46.1,53.86L49.2,50.06C49.373,49.845 49.634,49.719 49.91,49.719C50.186,49.719 50.447,49.845 50.62,50.06L53.72,53.86C54.031,54.241 54.067,54.781 53.81,55.2L51.98,58.14L54.98,74.82C55.008,74.982 55.15,75.102 55.315,75.102C55.48,75.102 55.622,74.982 55.65,74.82L61.23,44.38C61.439,43.24 62.442,42.405 63.601,42.405C64.025,42.405 64.443,42.517 64.81,42.73L66.35,43.63C70.45,46.004 74.383,48.657 78.12,51.57C79.156,52.341 80.12,53.204 81,54.15C83.424,56.906 85.141,60.212 86,63.78L92.27,89.42ZM53.62,26.61C58.896,24.841 62.407,19.781 62.22,14.22C61.975,7.421 56.333,1.953 49.53,1.92L49.45,1.92C44.615,1.937 40.2,4.735 38.12,9.1C37.89,9.577 37.771,10.1 37.771,10.63C37.771,12.563 39.362,14.154 41.295,14.154C42.646,14.154 43.883,13.377 44.47,12.16C45.402,10.234 47.36,9.004 49.5,9C52.518,9.043 55.018,11.446 55.18,14.46C55.261,16.931 53.703,19.179 51.36,19.97C48.214,20.983 46.05,23.906 46,27.21L46,30.21C46.191,31.99 47.71,33.355 49.5,33.355C51.29,33.355 52.809,31.99 53,30.21L53,27.21C53.07,26.81 53.57,26.63 53.62,26.61ZM49.55,37.94C47.608,37.94 46.01,39.538 46.01,41.48C46.01,43.422 47.608,45.02 49.55,45.02C51.492,45.02 53.09,43.422 53.09,41.48C53.09,39.538 51.492,37.94 49.55,37.94Z" style="fill:rgb(188,188,188);fill-rule:nonzero;"/>
    </g>
</svg>
